<svg viewBox="0 0 100 100" xmlns="http://www.w3.org/2000/svg"><g style="fill:none;fill-rule:evenodd;stroke-linecap:round;stroke-linejoin:round;stroke:#222f3e;stroke-width:4"><path d="m95.063447 8.94270835v77.83656635l-34.8923203-.0000013c-5.8516608 0-10.5953691 4.736511-10.5953691 10.6042152v-6.653102-1.4514316c0-5.3691378 4.3406454-9.7031974 9.6951029-9.7031974h29.0927759v-70.63304926z"/><path d="m49.5757576 11.6938381c0-5.34418156 4.3373597-9.6938381 9.6877641-9.6938381h29.1001147v77.5757576h-29.0927759c-5.3544575 0-9.6951029 4.3340596-9.6951029 9.7031974v1.4514316z"/><path d="m4.08806818 8.94270835v77.83656635l34.89232032-.0000013c5.8516608 0 10.5953691 4.736511 10.5953691 10.6042152v-6.653102-1.4514316c0-5.3691378-4.3406455-9.7031974-9.695103-9.7031974h-29.0927758v-70.63304926z"/><path d="m49.5757576 11.6938381c0-5.34418156-4.3373598-9.6938381-9.6877642-9.6938381h-29.1001146v77.5757576h29.0927758c5.3544575 0 9.695103 4.3340596 9.695103 9.7031974v1.4514316z"/></g></svg>